<svg width="30" height="30" viewBox="0 0 30 30" fill="none" xmlns="http://www.w3.org/2000/svg">
<path d="M3.75 25.0962V5.77C3.75 5.19417 3.94292 4.71375 4.32875 4.32875C4.71458 3.94375 5.19458 3.75083 5.76875 3.75H24.2313C24.8062 3.75 25.2863 3.94292 25.6713 4.32875C26.0563 4.71458 26.2492 5.195 26.25 5.77V19.2313C26.25 19.8062 26.0571 20.2867 25.6713 20.6725C25.2854 21.0583 24.8054 21.2508 24.2313 21.25H7.59625L3.75 25.0962ZM7.0625 20H24.2313C24.4229 20 24.5992 19.92 24.76 19.76C24.9208 19.6 25.0008 19.4237 25 19.2313V5.76875C25 5.57708 24.92 5.40083 24.76 5.24C24.6 5.07917 24.4237 4.99917 24.2313 5H5.76875C5.57708 5 5.40083 5.08 5.24 5.24C5.07917 5.4 4.99917 5.57625 5 5.76875V22.0563L7.0625 20Z" fill="black" fill-opacity="0.6"/>
</svg>
