<svg width="25" height="27" viewBox="0 0 25 27" fill="none" xmlns="http://www.w3.org/2000/svg">
<path d="M12.4994 21.8232L6.44014 25.8055C6.17246 25.9914 5.89261 26.071 5.6006 26.0445C5.30859 26.0179 5.05308 25.9117 4.83407 25.7259C4.61506 25.54 4.44472 25.308 4.32305 25.0298C4.20138 24.7515 4.17705 24.4393 4.25005 24.0931L5.85611 16.5665L0.490398 11.509C0.247055 11.27 0.0952091 10.9976 0.0348601 10.6918C-0.025489 10.3859 -0.00748172 10.0875 0.0888821 9.79655C0.185246 9.50557 0.331252 9.26663 0.5269 9.07973C0.722547 8.89282 0.990225 8.77335 1.32993 8.72132L8.41121 8.04432L11.1488 0.955761C11.2705 0.637174 11.4593 0.398233 11.7153 0.23894C11.9713 0.0796465 12.2327 0 12.4994 0C12.7661 0 13.0274 0.0796465 13.2834 0.23894C13.5394 0.398233 13.7283 0.637174 13.8499 0.955761L16.5875 8.04432L23.6688 8.72132C24.0095 8.77441 24.2772 8.89388 24.4719 9.07973C24.6665 9.26557 24.8125 9.50451 24.9099 9.79655C25.0072 10.0886 25.0257 10.3875 24.9654 10.6934C24.905 10.9992 24.7527 11.2711 24.5084 11.509L19.1426 16.5665L20.7487 24.0931C20.8217 24.4383 20.7974 24.7505 20.6757 25.0298C20.554 25.3091 20.3837 25.5411 20.1647 25.7259C19.9457 25.9107 19.6902 26.0169 19.3982 26.0445C19.1061 26.0721 18.8263 25.9924 18.5586 25.8055L12.4994 21.8232Z" fill="#F59E0B"/>
</svg>
