<svg width="23" height="23" viewBox="0 0 23 23" fill="none" xmlns="http://www.w3.org/2000/svg">
<path d="M11.5 3.83333C11.7541 3.83333 11.9979 3.9343 12.1776 4.11402C12.3573 4.29374 12.4583 4.5375 12.4583 4.79166V10.5417H18.2083C18.4625 10.5417 18.7062 10.6426 18.886 10.8224C19.0657 11.0021 19.1666 11.2458 19.1666 11.5C19.1666 11.7542 19.0657 11.9979 18.886 12.1776C18.7062 12.3574 18.4625 12.4583 18.2083 12.4583H12.4583V18.2083C12.4583 18.4625 12.3573 18.7063 12.1776 18.886C11.9979 19.0657 11.7541 19.1667 11.5 19.1667C11.2458 19.1667 11.0021 19.0657 10.8223 18.886C10.6426 18.7063 10.5416 18.4625 10.5416 18.2083V12.4583H4.79165C4.53748 12.4583 4.29372 12.3574 4.114 12.1776C3.93428 11.9979 3.83331 11.7542 3.83331 11.5C3.83331 11.2458 3.93428 11.0021 4.114 10.8224C4.29372 10.6426 4.53748 10.5417 4.79165 10.5417H10.5416V4.79166C10.5416 4.5375 10.6426 4.29374 10.8223 4.11402C11.0021 3.9343 11.2458 3.83333 11.5 3.83333Z" fill="black"/>
</svg>
