<svg width="24" height="24" viewBox="0 0 24 24" fill="none" xmlns="http://www.w3.org/2000/svg">
<path d="M21.77 11.4298L20.02 15.4298L18.18 14.6198L17.66 15.8298C17.55 16.0698 17.35 16.2598 17.1 16.3598C16.99 16.4098 16.86 16.4298 16.74 16.4298C16.6 16.4298 16.47 16.3998 16.34 16.3398L11.57 14.2598L9.93001 18.3698C9.85591 18.5559 9.72764 18.7154 9.56183 18.8278C9.39601 18.9401 9.20029 19 9.00001 18.9998H4.00001V21.9998H2.00001V13.9998H4.00001V16.9998H8.32001L9.74001 13.4598L2.60001 10.3298C2.09001 10.1098 1.86001 9.51983 2.08001 9.00983L4.89001 2.59983C5.00001 2.35983 5.20001 2.16983 5.44001 2.06983C5.69001 1.96983 5.97001 1.97983 6.21001 2.06983L19.95 8.08983C20.46 8.30983 20.69 8.89983 20.46 9.40983L19.94 10.6098L21.77 11.4198V11.4298Z" fill="#2563EB"/>
</svg>
