<svg width="24" height="24" viewBox="0 0 24 24" fill="none" xmlns="http://www.w3.org/2000/svg">
<path d="M6 13.975V10.975L4.125 12L1.125 6.8L7.725 3H9C9.26667 3.8 9.58333 4.5 9.95 5.1C10.3167 5.7 11 6 12 6C13 6 13.6833 5.7 14.05 5.1C14.4167 4.5 14.7333 3.8 15 3H16.275L22.85 6.825L19.875 12L18 10.975V15.775L16.425 17.15C16.3083 17.25 16.175 17.3293 16.025 17.388C15.875 17.4467 15.725 17.4757 15.575 17.475C15.475 17.475 15.3583 17.4417 15.225 17.375C15.0917 17.3083 14.9583 17.225 14.825 17.125L12.175 14.85C11.6417 14.3833 11.0417 14.0417 10.375 13.825C9.70833 13.6083 9.03333 13.5 8.35 13.5C7.95 13.5 7.554 13.5377 7.162 13.613C6.77 13.6883 6.38267 13.809 6 13.975ZM4.65 19.375L3.35 17.85L5.525 16C5.90833 15.6667 6.346 15.4123 6.838 15.237C7.33 15.0617 7.84233 14.9743 8.375 14.975C8.90767 14.9757 9.416 15.0633 9.9 15.238C10.384 15.4127 10.8173 15.6667 11.2 16L14.1 18.475C14.3 18.6417 14.5377 18.771 14.813 18.863C15.0883 18.955 15.3673 19.0007 15.65 19C15.95 19 16.2293 18.9583 16.488 18.875C16.7467 18.7917 16.9757 18.6583 17.175 18.475L19.35 16.6L20.65 18.15L18.475 20C18.0917 20.3333 17.6583 20.5833 17.175 20.75C16.6917 20.9167 16.1833 21 15.65 21C15.1167 21 14.6043 20.9167 14.113 20.75C13.6217 20.5833 13.184 20.3333 12.8 20L9.9 17.525C9.7 17.3583 9.471 17.2293 9.213 17.138C8.955 17.0467 8.67567 17.0007 8.375 17C8.09167 17 7.81267 17.046 7.538 17.138C7.26333 17.23 7.02567 17.359 6.825 17.525L4.65 19.375Z" fill="#2563EB"/>
</svg>
