<svg width="16" height="16" viewBox="0 0 16 16" fill="none" xmlns="http://www.w3.org/2000/svg">
<path d="M10.9996 1.5V2.5H12.7811L11.0936 4.203C10.4905 3.74749 9.75547 3.50072 8.99965 3.5C8.06465 3.5 7.19165 3.87 6.53065 4.5315C6.20392 4.85429 5.94452 5.23873 5.76749 5.66253C5.59046 6.08634 5.49933 6.54106 5.49938 7.00035C5.49942 7.45964 5.59065 7.91435 5.76776 8.33812C5.94487 8.76189 6.20435 9.14628 6.53115 9.469C6.96615 9.904 7.48415 10.2165 8.06215 10.375C8.11915 10.3315 8.18315 10.286 8.23415 10.235C8.44373 10.0218 8.59431 9.75788 8.67115 9.469C8.12674 9.40203 7.62056 9.1543 7.23365 8.7655C6.76165 8.294 6.49965 7.668 6.49965 7C6.49965 6.332 6.76215 5.707 7.23465 5.235C7.70565 4.7615 8.33165 4.5 8.99965 4.5C9.66765 4.5 10.2931 4.7625 10.7646 5.235C10.9979 5.46593 11.1829 5.74085 11.3091 6.04382C11.4352 6.3468 11.5 6.6718 11.4996 7C11.4996 7.4325 11.3771 7.835 11.1716 8.203C11.2196 8.461 11.2496 8.732 11.2496 9C11.2496 9.24967 11.2288 9.49467 11.1871 9.735C11.2871 9.6535 11.3761 9.561 11.4686 9.469C12.1296 8.807 12.4996 7.935 12.4996 7C12.4996 6.235 12.2476 5.508 11.7966 4.906L13.4996 3.219V5H14.4996V1.5H10.9996ZM7.93715 5.625C7.88015 5.6685 7.81615 5.714 7.76515 5.765C7.54915 5.982 7.40815 6.245 7.32815 6.5315C7.87315 6.6015 8.37065 6.8395 8.76565 7.2345C9.23815 7.706 9.50065 8.332 9.50065 8.9995C9.50065 9.667 9.23815 10.2925 8.76565 10.7645C8.29365 11.2385 7.66765 11.5 6.99965 11.5C6.33165 11.5 5.70615 11.2375 5.23465 10.765C5.00122 10.5342 4.81602 10.2594 4.68984 9.95634C4.56365 9.65332 4.499 9.32824 4.49965 9C4.49965 8.5675 4.62215 8.165 4.82765 7.797C4.77801 7.53418 4.75191 7.26746 4.74965 7C4.74965 6.75067 4.77048 6.50567 4.81215 6.265C4.71215 6.3465 4.62365 6.439 4.53065 6.5315C3.87065 7.192 3.49965 8.065 3.49965 9C3.49965 9.765 3.75165 10.492 4.20265 11.094L3.35965 11.9375L2.35965 10.9375L1.63965 11.6405L2.63965 12.6405L1.63965 13.6405L2.35965 14.3605L3.35965 13.3605L4.35965 14.3605L5.06215 13.6405L4.06215 12.6405L4.90615 11.7975C5.50869 12.2537 6.24388 12.5004 6.99965 12.5C7.93465 12.5 8.80765 12.13 9.46865 11.4685C10.1296 10.808 10.4996 9.935 10.4996 9C10.4996 8.065 10.1296 7.193 9.46815 6.531C9.03315 6.096 8.51515 5.7835 7.93715 5.625Z" fill="#2563EB"/>
</svg>
