<svg width="40" height="40" viewBox="0 0 40 40" fill="none" xmlns="http://www.w3.org/2000/svg">
<path d="M20 4.99994H8.33333C7.44928 4.99994 6.60143 5.35113 5.97631 5.97625C5.35119 6.60137 5 7.44922 5 8.33327V31.6666C5 32.5507 5.35119 33.3985 5.97631 34.0236C6.60143 34.6487 7.44928 34.9999 8.33333 34.9999H31.6667C32.5507 34.9999 33.3986 34.6487 34.0237 34.0236C34.6488 33.3985 35 32.5507 35 31.6666V19.9999" stroke="#2563EB" stroke-width="2" stroke-linecap="round" stroke-linejoin="round"/>
<path d="M30.625 4.37495C31.288 3.71191 32.1873 3.33942 33.125 3.33942C34.0627 3.33942 34.962 3.71191 35.625 4.37495C36.288 5.03799 36.6605 5.93727 36.6605 6.87495C36.6605 7.81263 36.288 8.71191 35.625 9.37495L20.6033 24.3983C20.2076 24.7937 19.7187 25.0831 19.1817 25.24L14.3933 26.64C14.2499 26.6818 14.0979 26.6843 13.9532 26.6472C13.8085 26.6101 13.6764 26.5348 13.5707 26.4292C13.4651 26.3236 13.3898 26.1915 13.3527 26.0468C13.3157 25.9021 13.3182 25.75 13.36 25.6066L14.76 20.8183C14.9175 20.2817 15.2076 19.7934 15.6033 19.3983L30.625 4.37495Z" stroke="#2563EB" stroke-width="2" stroke-linecap="round" stroke-linejoin="round"/>
</svg>
