<svg width="40" height="40" viewBox="0 0 40 40" fill="none" xmlns="http://www.w3.org/2000/svg">
<path d="M20 6.66669C20.442 6.66669 20.8659 6.84228 21.1785 7.15484C21.4911 7.4674 21.6667 7.89133 21.6667 8.33335V18.3334H31.6667C32.1087 18.3334 32.5326 18.5089 32.8452 18.8215C33.1577 19.1341 33.3333 19.558 33.3333 20C33.3333 20.442 33.1577 20.866 32.8452 21.1785C32.5326 21.4911 32.1087 21.6667 31.6667 21.6667H21.6667V31.6667C21.6667 32.1087 21.4911 32.5326 21.1785 32.8452C20.8659 33.1578 20.442 33.3334 20 33.3334C19.558 33.3334 19.134 33.1578 18.8215 32.8452C18.5089 32.5326 18.3333 32.1087 18.3333 31.6667V21.6667H8.33333C7.8913 21.6667 7.46738 21.4911 7.15482 21.1785C6.84226 20.866 6.66666 20.442 6.66666 20C6.66666 19.558 6.84226 19.1341 7.15482 18.8215C7.46738 18.5089 7.8913 18.3334 8.33333 18.3334H18.3333V8.33335C18.3333 7.89133 18.5089 7.4674 18.8215 7.15484C19.134 6.84228 19.558 6.66669 20 6.66669Z" fill="#2563EB"/>
</svg>
