<svg width="27" height="27" viewBox="0 0 27 27" fill="none" xmlns="http://www.w3.org/2000/svg">
<path fill-rule="evenodd" clip-rule="evenodd" d="M5.625 9.97864C5.625 9.68027 5.50647 9.39412 5.2955 9.18314C5.08452 8.97216 4.79837 8.85364 4.5 8.85364C4.20163 8.85364 3.91548 8.97216 3.7045 9.18314C3.49353 9.39412 3.375 9.68027 3.375 9.97864V25.7286C3.375 26.027 3.49353 26.3132 3.7045 26.5241C3.91548 26.7351 4.20163 26.8536 4.5 26.8536H22.5C22.7984 26.8536 23.0845 26.7351 23.2955 26.5241C23.5065 26.3132 23.625 26.027 23.625 25.7286C23.625 25.4303 23.5065 25.1441 23.2955 24.9331C23.0845 24.7222 22.7984 24.6036 22.5 24.6036H5.625V9.97864ZM10.125 17.8536C10.125 17.5553 10.0065 17.2691 9.7955 17.0581C9.58452 16.8472 9.29837 16.7286 9 16.7286C8.70163 16.7286 8.41548 16.8472 8.20451 17.0581C7.99353 17.2691 7.875 17.5553 7.875 17.8536V21.2286C7.875 21.527 7.99353 21.8132 8.20451 22.0241C8.41548 22.2351 8.70163 22.3536 9 22.3536C9.29837 22.3536 9.58452 22.2351 9.7955 22.0241C10.0065 21.8132 10.125 21.527 10.125 21.2286V17.8536ZM13.5 11.1036C13.7984 11.1036 14.0845 11.2222 14.2955 11.4331C14.5065 11.6441 14.625 11.9303 14.625 12.2286V21.2286C14.625 21.527 14.5065 21.8132 14.2955 22.0241C14.0845 22.2351 13.7984 22.3536 13.5 22.3536C13.2016 22.3536 12.9155 22.2351 12.7045 22.0241C12.4935 21.8132 12.375 21.527 12.375 21.2286V12.2286C12.375 11.9303 12.4935 11.6441 12.7045 11.4331C12.9155 11.2222 13.2016 11.1036 13.5 11.1036ZM19.125 15.6036C19.125 15.3053 19.0065 15.0191 18.7955 14.8081C18.5845 14.5972 18.2984 14.4786 18 14.4786C17.7016 14.4786 17.4155 14.5972 17.2045 14.8081C16.9935 15.0191 16.875 15.3053 16.875 15.6036V21.2286C16.875 21.527 16.9935 21.8132 17.2045 22.0241C17.4155 22.2351 17.7016 22.3536 18 22.3536C18.2984 22.3536 18.5845 22.2351 18.7955 22.0241C19.0065 21.8132 19.125 21.527 19.125 21.2286V15.6036Z" fill="black"/>
</svg>
