<svg width="35" height="35" viewBox="0 0 35 35" fill="none" xmlns="http://www.w3.org/2000/svg">
<path fill-rule="evenodd" clip-rule="evenodd" d="M19.2971 1.98335C20.2188 0.877932 22.014 1.63335 21.8681 3.06543L20.8386 13.125H29.1671C29.4442 13.1251 29.7155 13.2042 29.9493 13.3529C30.1831 13.5017 30.3697 13.7139 30.4872 13.9649C30.6048 14.2158 30.6483 14.4951 30.6129 14.7699C30.5775 15.0447 30.4644 15.3038 30.2871 15.5167L15.7038 33.0167C14.7821 34.1221 12.9869 33.3667 13.1327 31.9346L14.1623 21.875H5.83376C5.55666 21.8749 5.28532 21.7959 5.05152 21.6471C4.81772 21.4984 4.63114 21.2861 4.51362 21.0352C4.3961 20.7842 4.35251 20.505 4.38796 20.2301C4.4234 19.9553 4.53642 19.6963 4.71376 19.4833L19.2971 1.98335ZM8.94731 18.9584H16.7465C16.828 18.9583 16.9086 18.9754 16.9831 19.0085C17.0576 19.0416 17.1244 19.0899 17.1791 19.1504C17.2338 19.2108 17.2752 19.2821 17.3006 19.3595C17.3261 19.437 17.335 19.5189 17.3269 19.6L16.5204 27.4823L26.0536 16.0417H18.2544C18.1729 16.0417 18.0922 16.0246 18.0177 15.9915C17.9432 15.9585 17.8765 15.9101 17.8218 15.8497C17.7671 15.7892 17.7257 15.718 17.7002 15.6405C17.6748 15.5631 17.6658 15.4811 17.674 15.4L18.4804 7.51918L8.94731 18.9584Z" fill="#2563EB"/>
</svg>
