<svg width="112" height="20" viewBox="0 0 112 20" fill="none" xmlns="http://www.w3.org/2000/svg">
<path d="M9.9995 16.755L5.15211 19.8125C4.93797 19.9551 4.71409 20.0163 4.48048 19.9959C4.24687 19.9755 4.04246 19.894 3.86726 19.7513C3.69205 19.6086 3.55578 19.4305 3.45844 19.2169C3.3611 19.0032 3.34164 18.7635 3.40004 18.4977L4.68489 12.7191L0.392319 8.83611C0.197644 8.65266 0.0761673 8.44353 0.027888 8.20872C-0.0203912 7.9739 -0.00598538 7.7448 0.0711057 7.5214C0.148197 7.298 0.265001 7.11455 0.42152 6.97105C0.578038 6.82755 0.79218 6.73583 1.06395 6.69588L6.72897 6.17611L8.91906 0.733795C9.0164 0.489197 9.16746 0.305748 9.37226 0.183449C9.57706 0.0611494 9.78614 0 9.9995 0C10.2129 0 10.4219 0.0611494 10.6267 0.183449C10.8315 0.305748 10.9826 0.489197 11.0799 0.733795L13.27 6.17611L18.9351 6.69588C19.2076 6.73664 19.4217 6.82837 19.5775 6.97105C19.7332 7.11373 19.85 7.29718 19.9279 7.5214C20.0058 7.74561 20.0206 7.97513 19.9723 8.20994C19.924 8.44476 19.8021 8.65348 19.6067 8.83611L15.3141 12.7191L16.599 18.4977C16.6574 18.7627 16.6379 19.0024 16.5406 19.2169C16.4432 19.4313 16.307 19.6094 16.1317 19.7513C15.9565 19.8932 15.7521 19.9747 15.5185 19.9959C15.2849 20.0171 15.061 19.956 14.8469 19.8125L9.9995 16.755Z" fill="#F59E0B"/>
<path d="M32.9995 16.755L28.1521 19.8125C27.938 19.9551 27.7141 20.0163 27.4805 19.9959C27.2469 19.9755 27.0425 19.894 26.8673 19.7513C26.6921 19.6086 26.5558 19.4305 26.4584 19.2169C26.3611 19.0032 26.3416 18.7635 26.4 18.4977L27.6849 12.7191L23.3923 8.83611C23.1976 8.65266 23.0762 8.44353 23.0279 8.20872C22.9796 7.9739 22.994 7.7448 23.0711 7.5214C23.1482 7.298 23.265 7.11455 23.4215 6.97105C23.578 6.82755 23.7922 6.73583 24.0639 6.69588L29.729 6.17611L31.9191 0.733795C32.0164 0.489197 32.1675 0.305748 32.3723 0.183449C32.5771 0.0611494 32.7861 0 32.9995 0C33.2129 0 33.4219 0.0611494 33.6267 0.183449C33.8315 0.305748 33.9826 0.489197 34.0799 0.733795L36.27 6.17611L41.9351 6.69588C42.2076 6.73664 42.4217 6.82837 42.5775 6.97105C42.7332 7.11373 42.85 7.29718 42.9279 7.5214C43.0058 7.74561 43.0206 7.97513 42.9723 8.20994C42.924 8.44476 42.8021 8.65348 42.6067 8.83611L38.3141 12.7191L39.599 18.4977C39.6574 18.7627 39.6379 19.0024 39.5406 19.2169C39.4432 19.4313 39.307 19.6094 39.1317 19.7513C38.9565 19.8932 38.7521 19.9747 38.5185 19.9959C38.2849 20.0171 38.061 19.956 37.8469 19.8125L32.9995 16.755Z" fill="#F59E0B"/>
<path d="M55.9995 16.755L51.1521 19.8125C50.938 19.9551 50.7141 20.0163 50.4805 19.9959C50.2469 19.9755 50.0425 19.894 49.8673 19.7513C49.6921 19.6086 49.5558 19.4305 49.4584 19.2169C49.3611 19.0032 49.3416 18.7635 49.4 18.4977L50.6849 12.7191L46.3923 8.83611C46.1976 8.65266 46.0762 8.44353 46.0279 8.20872C45.9796 7.9739 45.994 7.7448 46.0711 7.5214C46.1482 7.298 46.265 7.11455 46.4215 6.97105C46.578 6.82755 46.7922 6.73583 47.0639 6.69588L52.729 6.17611L54.9191 0.733795C55.0164 0.489197 55.1675 0.305748 55.3723 0.183449C55.5771 0.0611494 55.7861 0 55.9995 0C56.2129 0 56.4219 0.0611494 56.6267 0.183449C56.8315 0.305748 56.9826 0.489197 57.0799 0.733795L59.27 6.17611L64.9351 6.69588C65.2076 6.73664 65.4217 6.82837 65.5775 6.97105C65.7332 7.11373 65.85 7.29718 65.9279 7.5214C66.0058 7.74561 66.0206 7.97513 65.9723 8.20994C65.924 8.44476 65.8021 8.65348 65.6067 8.83611L61.3141 12.7191L62.599 18.4977C62.6574 18.7627 62.6379 19.0024 62.5406 19.2169C62.4432 19.4313 62.307 19.6094 62.1317 19.7513C61.9565 19.8932 61.7521 19.9747 61.5185 19.9959C61.2849 20.0171 61.061 19.956 60.8469 19.8125L55.9995 16.755Z" fill="#F59E0B"/>
<path d="M78.9995 16.755L74.1521 19.8125C73.938 19.9551 73.7141 20.0163 73.4805 19.9959C73.2469 19.9755 73.0425 19.894 72.8673 19.7513C72.6921 19.6086 72.5558 19.4305 72.4584 19.2169C72.3611 19.0032 72.3416 18.7635 72.4 18.4977L73.6849 12.7191L69.3923 8.83611C69.1976 8.65266 69.0762 8.44353 69.0279 8.20872C68.9796 7.9739 68.994 7.7448 69.0711 7.5214C69.1482 7.298 69.265 7.11455 69.4215 6.97105C69.578 6.82755 69.7922 6.73583 70.0639 6.69588L75.729 6.17611L77.9191 0.733795C78.0164 0.489197 78.1675 0.305748 78.3723 0.183449C78.5771 0.0611494 78.7861 0 78.9995 0C79.2129 0 79.4219 0.0611494 79.6267 0.183449C79.8315 0.305748 79.9826 0.489197 80.0799 0.733795L82.27 6.17611L87.9351 6.69588C88.2076 6.73664 88.4217 6.82837 88.5775 6.97105C88.7332 7.11373 88.85 7.29718 88.9279 7.5214C89.0058 7.74561 89.0206 7.97513 88.9723 8.20994C88.924 8.44476 88.8021 8.65348 88.6067 8.83611L84.3141 12.7191L85.599 18.4977C85.6574 18.7627 85.6379 19.0024 85.5406 19.2169C85.4432 19.4313 85.307 19.6094 85.1317 19.7513C84.9565 19.8932 84.7521 19.9747 84.5185 19.9959C84.2849 20.0171 84.061 19.956 83.8469 19.8125L78.9995 16.755Z" fill="#F59E0B"/>
<path d="M102 16.755L97.1521 19.8125C96.938 19.9551 96.7141 20.0163 96.4805 19.9959C96.2469 19.9755 96.0425 19.894 95.8673 19.7513C95.6921 19.6086 95.5558 19.4305 95.4584 19.2169C95.3611 19.0032 95.3416 18.7635 95.4 18.4977L96.6849 12.7191L92.3923 8.83611C92.1976 8.65266 92.0762 8.44353 92.0279 8.20872C91.9796 7.9739 91.994 7.7448 92.0711 7.5214C92.1482 7.298 92.265 7.11455 92.4215 6.97105C92.578 6.82755 92.7922 6.73583 93.0639 6.69588L98.729 6.17611L100.919 0.733795C101.016 0.489197 101.167 0.305748 101.372 0.183449C101.577 0.0611494 101.786 0 102 0C102.213 0 102.422 0.0611494 102.627 0.183449C102.832 0.305748 102.983 0.489197 103.08 0.733795L105.27 6.17611L110.935 6.69588C111.208 6.73664 111.422 6.82837 111.577 6.97105C111.733 7.11373 111.85 7.29718 111.928 7.5214C112.006 7.74561 112.021 7.97513 111.972 8.20994C111.924 8.44476 111.802 8.65348 111.607 8.83611L107.314 12.7191L108.599 18.4977C108.657 18.7627 108.638 19.0024 108.541 19.2169C108.443 19.4313 108.307 19.6094 108.132 19.7513C107.957 19.8932 107.752 19.9747 107.519 19.9959C107.285 20.0171 107.061 19.956 106.847 19.8125L102 16.755Z" fill="#F59E0B"/>
</svg>
