<svg width="34" height="34" viewBox="0 0 34 34" fill="none" xmlns="http://www.w3.org/2000/svg">
<path d="M17 14.1667C12.5134 14.1667 8.72242 18.0845 7.49842 23.1165C6.96008 25.3294 7.77183 27.6782 9.76437 28.7818C11.344 29.6566 13.6935 30.4584 17 30.4584C20.3065 30.4584 22.6567 29.6566 24.2363 28.7818C26.2289 27.6782 27.0399 25.3294 26.5016 23.1165C25.2776 18.0838 21.4866 14.1667 17 14.1667ZM2.125 13.0646C2.125 15.021 3.39292 17.0001 4.95833 17.0001C6.52375 17.0001 7.79167 15.021 7.79167 13.0646C7.79167 11.1082 6.52375 9.91675 4.95833 9.91675C3.39292 9.91675 2.125 11.1089 2.125 13.0646ZM31.875 13.0646C31.875 15.021 30.6071 17.0001 29.0417 17.0001C27.4762 17.0001 26.2083 15.021 26.2083 13.0646C26.2083 11.1082 27.4762 9.91675 29.0417 9.91675C30.6071 9.91675 31.875 11.1089 31.875 13.0646ZM9.5625 6.68958C9.5625 8.646 10.8304 10.6251 12.3958 10.6251C13.9612 10.6251 15.2292 8.646 15.2292 6.68958C15.2292 4.73316 13.9612 3.54175 12.3958 3.54175C10.8304 3.54175 9.5625 4.73387 9.5625 6.68958ZM24.4375 6.68958C24.4375 8.646 23.1696 10.6251 21.6042 10.6251C20.0387 10.6251 18.7708 8.646 18.7708 6.68958C18.7708 4.73316 20.0387 3.54175 21.6042 3.54175C23.1696 3.54175 24.4375 4.73387 24.4375 6.68958Z" stroke="#2563EB" stroke-width="1.5" stroke-linecap="round" stroke-linejoin="round"/>
</svg>
