<svg width="35" height="35" viewBox="0 0 35 35" fill="none" xmlns="http://www.w3.org/2000/svg">
<path d="M16.7712 29.1667C15.9934 29.1667 15.2705 28.9722 14.6026 28.5833C13.9347 28.1944 13.3937 27.6597 12.9795 26.9792C12.7121 26.4931 12.7063 26.0069 12.962 25.5208C13.2177 25.0347 13.6124 24.7917 14.1462 24.7917C14.4621 24.7917 14.7417 24.8889 14.9847 25.0833C15.2278 25.2778 15.4465 25.4965 15.641 25.7396C15.7625 25.9097 15.9268 26.0376 16.1339 26.1231C16.341 26.2087 16.5534 26.251 16.7712 26.25C17.1844 26.25 17.531 26.11 17.811 25.83C18.091 25.55 18.2305 25.2039 18.2295 24.7917C18.2285 24.3794 18.0885 24.0333 17.8095 23.7533C17.5305 23.4733 17.1844 23.3333 16.7712 23.3333H4.37533C3.96214 23.3333 3.61603 23.1933 3.337 22.9133C3.05797 22.6333 2.91797 22.2872 2.917 21.875C2.91602 21.4628 3.05603 21.1167 3.337 20.8367C3.61797 20.5567 3.96408 20.4167 4.37533 20.4167H16.7712C17.9864 20.4167 19.0194 20.842 19.8701 21.6927C20.7208 22.5434 21.1462 23.5764 21.1462 24.7917C21.1462 26.0069 20.7208 27.0399 19.8701 27.8906C19.0194 28.7413 17.9864 29.1667 16.7712 29.1667ZM4.37533 14.5833C3.96214 14.5833 3.61603 14.4433 3.337 14.1633C3.05797 13.8833 2.91797 13.5372 2.917 13.125C2.91602 12.7128 3.05603 12.3667 3.337 12.0867C3.61797 11.8067 3.96408 11.6667 4.37533 11.6667H22.6045C23.2121 11.6667 23.7289 11.4542 24.1547 11.0294C24.5805 10.6045 24.793 10.0878 24.792 9.47917C24.791 8.87056 24.5786 8.35431 24.1547 7.93042C23.7308 7.50653 23.2141 7.29361 22.6045 7.29167C22.2156 7.29167 21.851 7.38306 21.5107 7.56583C21.1705 7.74861 20.9031 8.00965 20.7087 8.34896C20.5385 8.64062 20.3319 8.90215 20.0889 9.13354C19.8458 9.36493 19.5542 9.48014 19.2139 9.47917C18.7278 9.47917 18.333 9.29687 18.0297 8.93229C17.7264 8.56771 17.6471 8.17882 17.792 7.76562C18.1323 6.74479 18.7462 5.92472 19.6339 5.30542C20.5215 4.68611 21.5117 4.37597 22.6045 4.375C24.0142 4.375 25.2173 4.87326 26.2139 5.86979C27.2104 6.86632 27.7087 8.06944 27.7087 9.47917C27.7087 10.8889 27.2104 12.092 26.2139 13.0885C25.2173 14.0851 24.0142 14.5833 22.6045 14.5833H4.37533ZM29.0941 25.8125C28.608 26.0312 28.134 26.0011 27.6722 25.7221C27.2104 25.4431 26.9795 25.0357 26.9795 24.5C26.9795 24.1597 27.0952 23.8744 27.3266 23.644C27.558 23.4135 27.819 23.2128 28.1097 23.0417C28.45 22.8472 28.7115 22.5799 28.8943 22.2396C29.0771 21.8993 29.168 21.5347 29.167 21.1458C29.167 20.5382 28.9546 20.0219 28.5297 19.5971C28.1048 19.1722 27.5881 18.9593 26.9795 18.9583H4.37533C3.96214 18.9583 3.61603 18.8183 3.337 18.5383C3.05797 18.2583 2.91797 17.9122 2.917 17.5C2.91602 17.0878 3.05603 16.7417 3.337 16.4617C3.61797 16.1817 3.96408 16.0417 4.37533 16.0417H26.9795C28.3892 16.0417 29.5923 16.5399 30.5889 17.5365C31.5854 18.533 32.0837 19.7361 32.0837 21.1458C32.0837 22.1667 31.8163 23.0966 31.2816 23.9356C30.7469 24.7747 30.0177 25.4003 29.0941 25.8125Z" fill="#2563EB"/>
</svg>
