<svg width="30" height="30" viewBox="0 0 30 30" fill="none" xmlns="http://www.w3.org/2000/svg">
<path d="M20.5961 14.9037C23.16 14.9037 25.2493 11.4952 25.2493 7.34789C25.2493 3.24778 23.1707 0 20.5961 0C18.0429 0 15.9423 3.29575 15.9423 7.37987C15.953 11.5112 18.0429 14.9037 20.5961 14.9037ZM8.18679 15.2571C10.4057 15.2571 12.2261 12.2827 12.2261 8.63356C12.2261 5.06436 10.4271 2.18678 8.18679 2.18678C5.96786 2.18678 4.13679 5.11314 4.1475 8.66555C4.15821 12.2995 5.96786 15.2571 8.18679 15.2571ZM20.5961 12.4762C19.0232 12.4762 17.6764 10.2255 17.6764 7.37987C17.6764 4.58143 19.0018 2.42824 20.5961 2.42824C22.2011 2.42824 23.5152 4.55025 23.5152 7.34709C23.5152 10.1935 22.1904 12.4762 20.5961 12.4762ZM8.18679 12.8616C6.87268 12.8616 5.7525 10.9811 5.7525 8.66555C5.7525 6.39882 6.86143 4.58223 8.18679 4.58223C9.54375 4.58223 10.6318 6.36683 10.6318 8.63356C10.6318 10.9811 9.51161 12.8616 8.18679 12.8616ZM2.1975 30H10.6537C10.1362 29.5658 9.73768 28.6008 9.81321 27.6205H1.92857C1.71321 27.6205 1.60554 27.4926 1.60554 27.1864C1.60554 23.1998 4.65375 19.4699 8.17661 19.4699C9.53357 19.4699 10.7507 19.952 11.7959 20.8683C12.1426 20.2132 12.5528 19.6389 13.013 19.1645C11.6234 17.7972 9.95411 17.0904 8.17661 17.0904C3.66268 17.0904 0 21.9773 0 27.3311C0 29.1157 0.732322 30 2.1975 30ZM13.8311 30H27.3611C29.1488 30 30 29.1965 30 27.4278C30 23.2158 26.4343 17.1216 20.5961 17.1216C14.7466 17.1216 11.1814 23.2158 11.1814 27.4278C11.1814 29.1965 12.0321 30 13.8311 30ZM13.3141 27.5726C13.0339 27.5726 12.9155 27.4606 12.9155 27.1224C12.9155 24.4855 15.6514 19.5507 20.5961 19.5507C25.53 19.5507 28.2654 24.4855 28.2654 27.1224C28.2654 27.4598 28.1582 27.5726 27.8775 27.5726H13.3141Z" fill="black" fill-opacity="0.6"/>
</svg>
