<svg width="35" height="35" viewBox="0 0 35 35" fill="none" xmlns="http://www.w3.org/2000/svg">
<path d="M22.3125 21C22.3125 21.4641 22.1281 21.9092 21.7999 22.2374C21.4717 22.5656 21.0266 22.75 20.5625 22.75C20.0984 22.75 19.6533 22.5656 19.3251 22.2374C18.9969 21.9092 18.8125 21.4641 18.8125 21C18.8125 20.5359 18.9969 20.0908 19.3251 19.7626C19.6533 19.4344 20.0984 19.25 20.5625 19.25C21.0266 19.25 21.4717 19.4344 21.7999 19.7626C22.1281 20.0908 22.3125 20.5359 22.3125 21ZM16.1875 21C16.1875 21.4641 16.0031 21.9092 15.6749 22.2374C15.3467 22.5656 14.9016 22.75 14.4375 22.75C13.9734 22.75 13.5283 22.5656 13.2001 22.2374C12.8719 21.9092 12.6875 21.4641 12.6875 21C12.6875 20.5359 12.8719 20.0908 13.2001 19.7626C13.5283 19.4344 13.9734 19.25 14.4375 19.25C14.9016 19.25 15.3467 19.4344 15.6749 19.7626C16.0031 20.0908 16.1875 20.5359 16.1875 21Z" fill="#2563EB"/>
<path fill-rule="evenodd" clip-rule="evenodd" d="M17.5 12.25C18.1894 12.25 18.8721 12.1142 19.5091 11.8504C20.146 11.5865 20.7248 11.1998 21.2123 10.7123C21.6998 10.2248 22.0865 9.64605 22.3504 9.00909C22.6142 8.37213 22.75 7.68944 22.75 7C22.75 6.31056 22.6142 5.62787 22.3504 4.99091C22.0865 4.35395 21.6998 3.7752 21.2123 3.28769C20.7248 2.80018 20.146 2.41347 19.5091 2.14963C18.8721 1.8858 18.1894 1.75 17.5 1.75C16.1076 1.75 14.7723 2.30312 13.7877 3.28769C12.8031 4.27226 12.25 5.60761 12.25 7C12.25 8.39239 12.8031 9.72774 13.7877 10.7123C14.7723 11.6969 16.1076 12.25 17.5 12.25ZM17.5 3.5C18.4283 3.5 19.3185 3.86875 19.9749 4.52513C20.6313 5.1815 21 6.07174 21 7C21 7.92826 20.6313 8.8185 19.9749 9.47487C19.3185 10.1313 18.4283 10.5 17.5 10.5C16.5717 10.5 15.6815 10.1313 15.0251 9.47487C14.3687 8.8185 14 7.92826 14 7C14 6.07174 14.3687 5.1815 15.0251 4.52513C15.6815 3.86875 16.5717 3.5 17.5 3.5ZM18.375 24.5H16.625C15.9288 24.5 15.2611 24.7766 14.7688 25.2688C14.2766 25.7611 14 26.4288 14 27.125V30.625C14 31.3212 14.2766 31.9889 14.7688 32.4812C15.2611 32.9734 15.9288 33.25 16.625 33.25H18.375C19.0712 33.25 19.7389 32.9734 20.2312 32.4812C20.7234 31.9889 21 31.3212 21 30.625V27.125C21 26.4288 20.7234 25.7611 20.2312 25.2688C19.7389 24.7766 19.0712 24.5 18.375 24.5ZM15.75 27.125C15.75 26.8929 15.8422 26.6704 16.0063 26.5063C16.1704 26.3422 16.3929 26.25 16.625 26.25H18.375C18.6071 26.25 18.8296 26.3422 18.9937 26.5063C19.1578 26.6704 19.25 26.8929 19.25 27.125V30.625C19.25 30.8571 19.1578 31.0796 18.9937 31.2437C18.8296 31.4078 18.6071 31.5 18.375 31.5H16.625C16.3929 31.5 16.1704 31.4078 16.0063 31.2437C15.8422 31.0796 15.75 30.8571 15.75 30.625V27.125Z" fill="#2563EB"/>
<path d="M27.125 6.5625C26.7769 6.5625 26.4431 6.42422 26.1969 6.17808C25.9508 5.93194 25.8125 5.5981 25.8125 5.25C25.8125 4.9019 25.9508 4.56806 26.1969 4.32192C26.4431 4.07578 26.7769 3.9375 27.125 3.9375H30.625C30.9731 3.9375 31.3069 4.07578 31.5531 4.32192C31.7992 4.56806 31.9375 4.9019 31.9375 5.25C31.9375 5.5981 31.7992 5.93194 31.5531 6.17808C31.3069 6.42422 30.9731 6.5625 30.625 6.5625H27.125ZM4.375 6.5625C4.0269 6.5625 3.69306 6.42422 3.44692 6.17808C3.20078 5.93194 3.0625 5.5981 3.0625 5.25C3.0625 4.9019 3.20078 4.56806 3.44692 4.32192C3.69306 4.07578 4.0269 3.9375 4.375 3.9375H7.875C8.2231 3.9375 8.55694 4.07578 8.80308 4.32192C9.04922 4.56806 9.1875 4.9019 9.1875 5.25C9.1875 5.5981 9.04922 5.93194 8.80308 6.17808C8.55694 6.42422 8.2231 6.5625 7.875 6.5625H4.375Z" fill="#2563EB"/>
<path d="M7.18555 5.88695L7.71405 4.18945L14.1855 5.48795L13.657 7.18545L7.18555 5.88695ZM20.8145 5.48795L21.343 7.18545L27.8145 5.88695L27.286 4.18945L20.8145 5.48795Z" fill="#2563EB"/>
<path fill-rule="evenodd" clip-rule="evenodd" d="M25.375 18.375C25.375 17.3408 25.1713 16.3168 24.7756 15.3614C24.3798 14.4059 23.7997 13.5378 23.0685 12.8065C22.3372 12.0753 21.4691 11.4952 20.5136 11.0994C19.5582 10.7037 18.5342 10.5 17.5 10.5C16.4658 10.5 15.4418 10.7037 14.4864 11.0994C13.5309 11.4952 12.6628 12.0753 11.9315 12.8065C11.2003 13.5378 10.6202 14.4059 10.2244 15.3614C9.82869 16.3168 9.625 17.3408 9.625 18.375V22.75C9.625 23.6783 9.99375 24.5685 10.6501 25.2249C11.3065 25.8813 12.1967 26.25 13.125 26.25H21.875C22.8033 26.25 23.6935 25.8813 24.3499 25.2249C25.0063 24.5685 25.375 23.6783 25.375 22.75V18.375ZM11.375 18.375C11.375 17.5707 11.5334 16.7742 11.8412 16.0311C12.149 15.2879 12.6002 14.6127 13.169 14.044C13.7377 13.4752 14.4129 13.024 15.1561 12.7162C15.8992 12.4084 16.6957 12.25 17.5 12.25C18.3043 12.25 19.1008 12.4084 19.8439 12.7162C20.5871 13.024 21.2623 13.4752 21.831 14.044C22.3998 14.6127 22.851 15.2879 23.1588 16.0311C23.4666 16.7742 23.625 17.5707 23.625 18.375V22.75C23.625 23.2141 23.4406 23.6592 23.1124 23.9874C22.7842 24.3156 22.3391 24.5 21.875 24.5H13.125C12.6609 24.5 12.2158 24.3156 11.8876 23.9874C11.5594 23.6592 11.375 23.2141 11.375 22.75V18.375Z" fill="#2563EB"/>
</svg>
