<svg width="23" height="23" viewBox="0 0 23 23" fill="none" xmlns="http://www.w3.org/2000/svg">
<path d="M8.60966 19.802H5.45674C4.29524 19.802 3.35416 18.861 3.35416 17.6995V11.5144C3.35486 11.0638 3.45185 10.6186 3.63861 10.2085C3.82538 9.79846 4.09761 9.43305 4.43707 9.13676L10.12 4.18696C10.5027 3.85406 10.9928 3.67072 11.5 3.67072C12.0072 3.67072 12.4973 3.85406 12.88 4.18696L18.5629 9.13771C18.9023 9.4339 19.1744 9.79916 19.3612 10.209C19.5479 10.6189 19.645 11.064 19.6458 11.5144V17.6995C19.6458 18.2569 19.4244 18.7916 19.0303 19.1859C18.6362 19.5802 18.1017 19.8018 17.5442 19.802H14.6529V13.4953C14.6529 12.6251 13.9476 11.9188 13.0764 11.9188H10.1871C9.31595 11.9188 8.61062 12.6251 8.61062 13.4953L8.60966 19.802ZM8.60966 19.802H14.6539" stroke="black" stroke-width="1.5" stroke-linejoin="round"/>
</svg>
