<svg width="35" height="35" viewBox="0 0 35 35" fill="none" xmlns="http://www.w3.org/2000/svg">
<path d="M13.102 30.1335H8.30408C6.53658 30.1335 5.10449 28.7015 5.10449 26.934V17.5219C5.10557 16.8362 5.25315 16.1587 5.53736 15.5347C5.82157 14.9107 6.23583 14.3546 6.75241 13.9038L15.4003 6.37146C15.9827 5.86487 16.7285 5.58586 17.5003 5.58586C18.2722 5.58586 19.018 5.86487 19.6003 6.37146L28.2482 13.9052C28.7646 14.3559 29.1788 14.9118 29.463 15.5355C29.7472 16.1592 29.8949 16.8365 29.8962 17.5219V26.934C29.8962 27.7823 29.5593 28.5959 28.9595 29.1959C28.3598 29.7959 27.5464 30.1332 26.698 30.1335H22.2982V20.5362C22.2982 19.2121 21.2249 18.1373 19.8993 18.1373H15.5024C14.1768 18.1373 13.1035 19.2121 13.1035 20.5362L13.102 30.1335ZM13.102 30.1335H22.2997" stroke="black" stroke-opacity="0.7" stroke-width="1.5" stroke-linejoin="round"/>
</svg>
