<svg width="30" height="30" viewBox="0 0 30 30" fill="none" xmlns="http://www.w3.org/2000/svg">
<path d="M3.24028 19.9713C4.08153 16.8213 6.64841 14.375 9.90904 14.375C12.9684 14.375 15.0115 17.1406 14.944 20.2L14.9084 21.8056C14.895 22.4036 15.0043 22.9979 15.2296 23.552C15.4549 24.106 15.7915 24.608 16.2184 25.0269L16.9097 25.7056C17.9015 26.6788 17.3222 28.3456 15.9384 28.4606C14.1465 28.6087 11.9322 28.75 10.0003 28.75C7.51153 28.75 5.02278 28.5156 3.46841 28.3337C2.54966 28.2262 1.87028 27.4412 1.95778 26.52C2.15778 24.4181 2.69216 22.0275 3.24028 19.9713Z" fill="white"/>
<path fill-rule="evenodd" clip-rule="evenodd" d="M14.9079 1.79989C14.761 1.74583 14.6116 1.69869 14.4604 1.65864C14.3091 1.61772 14.156 1.58393 14.0016 1.55739C13.3754 1.45114 12.9141 1.91739 12.7216 2.52302C11.6279 5.98114 10.3354 10.6618 9.3291 14.4011C9.51952 14.3836 9.71285 14.3749 9.9091 14.3749C10.8441 14.3749 11.6841 14.633 12.3979 15.0793L12.8279 13.5355C13.7704 10.1549 14.8466 6.29802 15.5304 3.27614C15.671 2.65614 15.5035 2.02114 14.9079 1.79989Z" fill="#8FBFFA"/>
<path d="M3.24028 19.9713C4.08153 16.8213 6.64841 14.375 9.90904 14.375C12.9684 14.375 15.0115 17.1406 14.944 20.2L14.9084 21.8056C14.895 22.4036 15.0043 22.9979 15.2296 23.552C15.4549 24.106 15.7915 24.608 16.2184 25.0269L16.9097 25.7056C17.9015 26.6788 17.3222 28.3456 15.9384 28.4606C14.1465 28.6087 11.9322 28.75 10.0003 28.75C7.51153 28.75 5.02278 28.5156 3.46841 28.3337C2.54966 28.2262 1.87028 27.4412 1.95778 26.52C2.15778 24.4181 2.69216 22.0275 3.24028 19.9713Z" stroke="#2859C5" stroke-width="1.5" stroke-linecap="round" stroke-linejoin="round"/>
<path d="M12.5 15.0111C13.55 11.1174 14.6637 7.21861 15.5331 3.27798C15.67 2.65736 15.5031 2.02173 14.9081 1.79986C14.761 1.74578 14.6115 1.69864 14.46 1.65861C14.3087 1.61769 14.1557 1.5839 14.0012 1.55736C13.375 1.45111 12.9125 1.91861 12.7212 2.52423C11.4962 6.39361 10.5075 10.3505 9.46311 14.2692M28.125 28.1249H21.875M26.25 23.1249H20M24.375 18.1249H18.125M6.28061 23.5936C6.17624 24.5311 6.28061 26.8436 7.53061 28.5936M10.6556 23.7499C10.6556 23.7499 10.6556 26.8749 12.5 28.4374" stroke="#2859C5" stroke-width="1.5" stroke-linecap="round" stroke-linejoin="round"/>
</svg>
