<svg width="23" height="23" viewBox="0 0 23 23" fill="none" xmlns="http://www.w3.org/2000/svg">
<path d="M10.394 3.66275C10.8032 2.67854 12.1957 2.67854 12.6059 3.66275L14.2762 7.67816L18.6117 8.02604C19.6736 8.11133 20.1048 9.43671 19.295 10.1296L15.9916 12.9595L17.0008 17.1906C17.248 18.2265 16.121 19.0459 15.2116 18.491L11.4999 16.2236L7.78832 18.491C6.8779 19.0469 5.7509 18.2265 5.99815 17.1906L7.00728 12.9595L3.7039 10.1296C2.89507 9.43671 3.32536 8.11133 4.38815 8.02604L8.72365 7.67816L10.394 3.66275ZM11.4999 4.74662L9.9944 8.36625C9.90967 8.56947 9.77057 8.74542 9.59238 8.87475C9.41419 9.00408 9.2038 9.0818 8.98432 9.09937L5.07719 9.41275L8.05378 11.9629C8.39494 12.2552 8.54348 12.7142 8.43998 13.1512L7.52957 16.9635L10.8751 14.9203C11.0631 14.8055 11.2792 14.7447 11.4995 14.7447C11.7198 14.7447 11.9358 14.8055 12.1238 14.9203L15.4684 16.9635L14.5599 13.1512C14.5087 12.9368 14.5177 12.7124 14.5858 12.5027C14.6539 12.293 14.7786 12.1062 14.9461 11.9629L17.9227 9.41371L14.0156 9.09937C13.7959 9.08197 13.5853 9.00433 13.4069 8.87499C13.2286 8.74564 13.0893 8.56961 13.0045 8.36625L11.4999 4.74662Z" fill="black"/>
</svg>
