<svg width="30" height="30" viewBox="0 0 30 30" fill="none" xmlns="http://www.w3.org/2000/svg">
<path d="M8.75 8.75C8.25555 8.75 7.7722 8.89662 7.36107 9.17133C6.94995 9.44603 6.62952 9.83648 6.4403 10.2933C6.25108 10.7501 6.20157 11.2528 6.29804 11.7377C6.3945 12.2227 6.6326 12.6681 6.98223 13.0178C7.33186 13.3674 7.77732 13.6055 8.26227 13.702C8.74723 13.7984 9.24989 13.7489 9.70671 13.5597C10.1635 13.3705 10.554 13.05 10.8287 12.6389C11.1034 12.2278 11.25 11.7445 11.25 11.25M27.5 21.25V17.5M27.5 17.5H22.5M27.5 17.5V15C27.5 14.0054 27.1049 13.0516 26.4017 12.3483C25.6984 11.6451 24.7446 11.25 23.75 11.25H16.25M2.5 17.5H17.5H15V15M2.5 10V21.25M3.75 3.75L26.25 26.25" stroke="#2563EB" stroke-width="2" stroke-linecap="round" stroke-linejoin="round"/>
</svg>
