<svg width="40" height="40" viewBox="0 0 40 40" fill="none" xmlns="http://www.w3.org/2000/svg">
<path d="M27.4614 19.8715C30.88 19.8715 33.6657 15.3269 33.6657 9.79718C33.6657 4.33037 30.8943 0 27.4614 0C24.0571 0 21.2564 4.39434 21.2564 9.83982C21.2707 15.3482 24.0571 19.8715 27.4614 19.8715ZM10.9157 20.3427C13.8743 20.3427 16.3014 16.377 16.3014 11.5114C16.3014 6.75248 13.9029 2.9157 10.9157 2.9157C7.95714 2.9157 5.51571 6.81752 5.53 11.5541C5.54429 16.3994 7.95714 20.3427 10.9157 20.3427ZM27.4614 16.635C25.3643 16.635 23.5686 13.634 23.5686 9.83982C23.5686 6.10858 25.3357 3.23765 27.4614 3.23765C29.6014 3.23765 31.3536 6.067 31.3536 9.79611C31.3536 13.5913 29.5871 16.635 27.4614 16.635ZM10.9157 17.1488C9.16357 17.1488 7.67 14.6414 7.67 11.5541C7.67 8.53176 9.14857 6.10965 10.9157 6.10965C12.725 6.10965 14.1757 8.48911 14.1757 11.5114C14.1757 14.6414 12.6821 17.1488 10.9157 17.1488ZM2.93 40H14.205C13.515 39.4211 12.9836 38.1344 13.0843 36.8274H2.57143C2.28429 36.8274 2.14071 36.6568 2.14071 36.2485C2.14071 30.9331 6.205 25.9599 10.9021 25.9599C12.7114 25.9599 14.3343 26.6027 15.7279 27.8244C16.1901 26.9509 16.7371 26.1853 17.3507 25.5526C15.4979 23.7296 13.2721 22.7872 10.9021 22.7872C4.88357 22.7872 0 29.3031 0 36.4415C0 38.8209 0.976429 40 2.93 40ZM18.4414 40H36.4814C38.865 40 40 38.9286 40 36.5705C40 30.9544 35.2457 22.8288 27.4614 22.8288C19.6621 22.8288 14.9086 30.9544 14.9086 36.5705C14.9086 38.9286 16.0429 40 18.4414 40ZM17.7521 36.7634C17.3786 36.7634 17.2207 36.6142 17.2207 36.1632C17.2207 32.6473 20.8686 26.0675 27.4614 26.0675C34.04 26.0675 37.6871 32.6473 37.6871 36.1632C37.6871 36.6131 37.5443 36.7634 37.17 36.7634H17.7521Z" fill="#2563EB"/>
</svg>
