<svg width="16" height="16" viewBox="0 0 16 16" fill="none" xmlns="http://www.w3.org/2000/svg">
<path d="M11 13C11.2652 13 11.5196 13.1054 11.7071 13.2929C11.8946 13.4804 12 13.7348 12 14C12 14.2652 11.8946 14.5196 11.7071 14.7071C11.5196 14.8946 11.2652 15 11 15H5C4.73478 15 4.48043 14.8946 4.29289 14.7071C4.10536 14.5196 4 14.2652 4 14C4 13.7348 4.10536 13.4804 4.29289 13.2929C4.48043 13.1054 4.73478 13 5 13H11ZM14 6C14.2652 6 14.5196 6.10536 14.7071 6.29289C14.8946 6.48043 15 6.73478 15 7C15 7.26522 14.8946 7.51957 14.7071 7.70711C14.5196 7.89464 14.2652 8 14 8H12V9.5C12 9.8283 11.9353 10.1534 11.8097 10.4567C11.6841 10.76 11.4999 11.0356 11.2678 11.2678C11.0356 11.4999 10.76 11.6841 10.4567 11.8097C10.1534 11.9353 9.8283 12 9.5 12H6.5C5.83696 12 5.20107 11.7366 4.73223 11.2678C4.26339 10.7989 4 10.163 4 9.5V7.5C4 7.10218 4.15804 6.72064 4.43934 6.43934C4.72064 6.15804 5.10218 6 5.5 6H14ZM2.5 1C2.63261 1 2.75979 1.05268 2.85355 1.14645C2.94732 1.24021 3 1.36739 3 1.5C3 1.97 3.275 2.206 3.8 2.6L3.84 2.63C4.314 2.985 5 3.498 5 4.5C5 4.63261 4.94732 4.75979 4.85355 4.85355C4.75979 4.94732 4.63261 5 4.5 5C4.36739 5 4.24021 4.94732 4.14645 4.85355C4.05268 4.75979 4 4.63261 4 4.5C4 4.03 3.725 3.794 3.2 3.4L3.16 3.37C2.686 3.015 2 2.502 2 1.5C2 1.36739 2.05268 1.24021 2.14645 1.14645C2.24021 1.05268 2.36739 1 2.5 1ZM5.5 1C5.63261 1 5.75979 1.05268 5.85355 1.14645C5.94732 1.24021 6 1.36739 6 1.5C6 1.97 6.274 2.206 6.8 2.6L6.84 2.63C7.314 2.985 8 3.498 8 4.5C8 4.63261 7.94732 4.75979 7.85355 4.85355C7.75979 4.94732 7.63261 5 7.5 5C7.36739 5 7.24021 4.94732 7.14645 4.85355C7.05268 4.75979 7 4.63261 7 4.5C7 4.03 6.726 3.794 6.2 3.4L6.16 3.37C5.686 3.015 5 2.502 5 1.5C5 1.36739 5.05268 1.24021 5.14645 1.14645C5.24021 1.05268 5.36739 1 5.5 1ZM8.5 1C8.63261 1 8.75979 1.05268 8.85355 1.14645C8.94732 1.24021 9 1.36739 9 1.5C9 1.97 9.274 2.206 9.8 2.6L9.84 2.63C10.314 2.985 11 3.498 11 4.5C11 4.63261 10.9473 4.75979 10.8536 4.85355C10.7598 4.94732 10.6326 5 10.5 5C10.3674 5 10.2402 4.94732 10.1464 4.85355C10.0527 4.75979 10 4.63261 10 4.5C10 4.03 9.726 3.794 9.2 3.4L9.16 3.37C8.686 3.015 8 2.502 8 1.5C8 1.36739 8.05268 1.24021 8.14645 1.14645C8.24021 1.05268 8.36739 1 8.5 1Z" fill="#2563EB"/>
</svg>
