<svg width="35" height="35" viewBox="0 0 35 35" fill="none" xmlns="http://www.w3.org/2000/svg">
<path d="M5.8335 26.25C5.8335 24.7029 6.44808 23.2192 7.54204 22.1252C8.636 21.0312 10.1197 20.4167 11.6668 20.4167H23.3335C24.8806 20.4167 26.3643 21.0312 27.4583 22.1252C28.5522 23.2192 29.1668 24.7029 29.1668 26.25C29.1668 27.0235 28.8595 27.7654 28.3126 28.3124C27.7656 28.8594 27.0237 29.1667 26.2502 29.1667H8.75016C7.97661 29.1667 7.23475 28.8594 6.68777 28.3124C6.14079 27.7654 5.8335 27.0235 5.8335 26.25Z" stroke="black" stroke-opacity="0.7" stroke-width="1.5" stroke-linejoin="round"/>
<path d="M17.5 14.5833C19.9162 14.5833 21.875 12.6246 21.875 10.2083C21.875 7.79208 19.9162 5.83333 17.5 5.83333C15.0838 5.83333 13.125 7.79208 13.125 10.2083C13.125 12.6246 15.0838 14.5833 17.5 14.5833Z" stroke="black" stroke-opacity="0.7" stroke-width="1.5"/>
</svg>
