<svg width="30" height="30" viewBox="0 0 30 30" fill="none" xmlns="http://www.w3.org/2000/svg">
<path d="M16.0675 4.37499C15.9612 4.1853 15.8062 4.02736 15.6186 3.91744C15.431 3.80752 15.2175 3.74957 15 3.74957C14.7826 3.74957 14.569 3.80752 14.3814 3.91744C14.1938 4.02736 14.0388 4.1853 13.9325 4.37499C13.6825 4.82999 13.4421 5.29082 13.2113 5.75749C12.484 7.23368 11.8657 8.76109 11.3613 10.3275C11.1875 10.8662 10.6725 11.24 10.0825 11.2562C8.29403 11.3033 6.51137 11.4808 4.74876 11.7875C3.78126 11.9575 3.41751 13.06 4.10501 13.7325C4.26167 13.8867 4.42001 14.0387 4.58001 14.1887C5.77633 15.3186 7.04124 16.3735 8.36751 17.3475C8.82626 17.6837 9.01501 18.26 8.84001 18.7875C8.17337 20.7913 7.69628 22.8533 7.41501 24.9462C7.29001 25.89 8.30001 26.5562 9.17751 26.1062C10.9176 25.214 12.5815 24.1806 14.1525 23.0162C14.3986 22.8366 14.6954 22.7398 15 22.7398C15.3047 22.7398 15.6014 22.8366 15.8475 23.0162C17.4182 24.181 19.0822 25.2145 20.8225 26.1062C21.6988 26.5562 22.71 25.89 22.585 24.9462C22.5367 24.5921 22.4838 24.24 22.4263 23.89C22.1375 22.1588 21.7141 20.4528 21.16 18.7875C20.985 18.26 21.1725 17.6837 21.6325 17.3475C23.1372 16.245 24.5616 15.0369 25.895 13.7325C26.5825 13.06 26.22 11.9575 25.2513 11.7875C23.4889 11.479 21.7061 11.3014 19.9175 11.2562C19.6347 11.2517 19.3602 11.1601 19.1314 10.9939C18.9025 10.8277 18.7305 10.595 18.6388 10.3275C17.9746 8.26582 17.1136 6.27163 16.0675 4.37499Z" stroke="black" stroke-opacity="0.6" stroke-width="1.5" stroke-linecap="round" stroke-linejoin="round"/>
</svg>
