<svg width="42" height="42" viewBox="0 0 42 42" fill="none" xmlns="http://www.w3.org/2000/svg">
<path d="M38.5 21H8.75V11.2175C8.74481 10.5874 8.91152 9.96786 9.23221 9.42547C9.5529 8.88307 10.0154 8.43839 10.57 8.13927C11.1845 7.80771 11.8842 7.66753 12.579 7.73677C12.2251 8.80763 12.1746 9.95556 12.4332 11.0534C12.6917 12.1511 13.2492 13.1559 14.0437 13.9563L15.8988 15.8113C16.0613 15.974 16.2543 16.1031 16.4667 16.1911C16.6792 16.2792 16.9069 16.3245 17.1369 16.3245C17.3669 16.3245 17.5946 16.2792 17.807 16.1911C18.0195 16.1031 18.2125 15.974 18.375 15.8113L24.5612 9.62502C24.8893 9.29685 25.0736 8.85181 25.0736 8.38777C25.0736 7.92374 24.8893 7.4787 24.5612 7.15052L22.7063 5.29552C21.6733 4.26693 20.3069 3.64119 18.8534 3.53113C17.3998 3.42107 15.9548 3.83393 14.7787 4.69527C13.7186 4.28097 12.5732 4.132 11.4424 4.2613C10.3115 4.39061 9.22932 4.79429 8.29004 5.43721C7.35075 6.08013 6.58279 6.94283 6.05296 7.95024C5.52313 8.95766 5.24748 10.0793 5.25 11.2175V21H3.5C3.03587 21 2.59075 21.1844 2.26256 21.5126C1.93437 21.8408 1.75 22.2859 1.75 22.75C1.75 23.2142 1.93437 23.6593 2.26256 23.9875C2.59075 24.3156 3.03587 24.5 3.5 24.5H5.25V29.75C5.25321 30.8323 5.59138 31.887 6.21806 32.7694C6.84474 33.6517 7.7292 34.3185 8.75 34.678V36.75C8.75 37.2142 8.93437 37.6593 9.26256 37.9875C9.59075 38.3157 10.0359 38.5 10.5 38.5C10.9641 38.5 11.4092 38.3157 11.7374 37.9875C12.0656 37.6593 12.25 37.2142 12.25 36.75V35H29.75V36.75C29.75 37.2142 29.9344 37.6593 30.2626 37.9875C30.5908 38.3157 31.0359 38.5 31.5 38.5C31.9641 38.5 32.4092 38.3157 32.7374 37.9875C33.0656 37.6593 33.25 37.2142 33.25 36.75V34.678C34.2708 34.3185 35.1553 33.6517 35.7819 32.7694C36.4086 31.887 36.7468 30.8323 36.75 29.75V24.5H38.5C38.9641 24.5 39.4092 24.3156 39.7374 23.9875C40.0656 23.6593 40.25 23.2142 40.25 22.75C40.25 22.2859 40.0656 21.8408 39.7374 21.5126C39.4092 21.1844 38.9641 21 38.5 21ZM16.52 7.77002C17.0122 7.27845 17.6794 7.00233 18.375 7.00233C19.0706 7.00233 19.7378 7.27845 20.23 7.77002L20.8495 8.38777L17.1378 12.0995L16.5183 11.4818C16.2743 11.238 16.0808 10.9485 15.9488 10.63C15.8168 10.3114 15.7488 9.96988 15.7488 9.62502C15.7488 9.28016 15.8168 8.93868 15.9488 8.62009C16.0808 8.3015 16.2743 8.01205 16.5183 7.76827L16.52 7.77002ZM33.25 29.75C33.25 30.2142 33.0656 30.6593 32.7374 30.9875C32.4092 31.3157 31.9641 31.5 31.5 31.5H10.5C10.0359 31.5 9.59075 31.3157 9.26256 30.9875C8.93437 30.6593 8.75 30.2142 8.75 29.75V24.5H33.25V29.75Z" fill="#2563EB"/>
</svg>
