<svg width="30" height="30" viewBox="0 0 30 30" fill="none" xmlns="http://www.w3.org/2000/svg">
<path fill-rule="evenodd" clip-rule="evenodd" d="M10.3125 15C10.3125 13.7568 10.8064 12.5645 11.6854 11.6854C12.5645 10.8064 13.7568 10.3125 15 10.3125C16.2432 10.3125 17.4355 10.8064 18.3146 11.6854C19.1936 12.5645 19.6875 13.7568 19.6875 15C19.6875 16.2432 19.1936 17.4355 18.3146 18.3146C17.4355 19.1936 16.2432 19.6875 15 19.6875C13.7568 19.6875 12.5645 19.1936 11.6854 18.3146C10.8064 17.4355 10.3125 16.2432 10.3125 15ZM15 12.1875C14.2541 12.1875 13.5387 12.4838 13.0113 13.0113C12.4838 13.5387 12.1875 14.2541 12.1875 15C12.1875 15.7459 12.4838 16.4613 13.0113 16.9887C13.5387 17.5162 14.2541 17.8125 15 17.8125C15.7459 17.8125 16.4613 17.5162 16.9887 16.9887C17.5162 16.4613 17.8125 15.7459 17.8125 15C17.8125 14.2541 17.5162 13.5387 16.9887 13.0113C16.4613 12.4838 15.7459 12.1875 15 12.1875Z" fill="black" fill-opacity="0.6"/>
<path fill-rule="evenodd" clip-rule="evenodd" d="M5.40375 13.3075C4.88 14.0625 4.6875 14.6538 4.6875 15C4.6875 15.3462 4.88 15.9375 5.40375 16.6925C5.91125 17.4213 6.66375 18.2125 7.61625 18.9437C9.525 20.4087 12.1412 21.5625 15 21.5625C17.8588 21.5625 20.475 20.4087 22.3837 18.9437C23.3363 18.2125 24.0888 17.4213 24.5963 16.6925C25.12 15.9375 25.3125 15.3462 25.3125 15C25.3125 14.6538 25.12 14.0625 24.5963 13.3075C24.0888 12.5787 23.3363 11.7875 22.3837 11.0563C20.475 9.59125 17.8588 8.4375 15 8.4375C12.1412 8.4375 9.525 9.59125 7.61625 11.0563C6.66375 11.7875 5.91125 12.5787 5.40375 13.3075ZM6.47375 9.56875C8.6375 7.90875 11.645 6.5625 15 6.5625C18.355 6.5625 21.3625 7.90875 23.525 9.56875C24.6087 10.4 25.5037 11.3275 26.1362 12.2388C26.7513 13.125 27.1875 14.0963 27.1875 15C27.1875 15.9038 26.75 16.875 26.1362 17.7612C25.5037 18.6725 24.6087 19.5987 23.5262 20.4312C21.3637 22.0912 18.355 23.4375 15 23.4375C11.645 23.4375 8.6375 22.0912 6.475 20.4312C5.39125 19.6 4.49625 18.6725 3.86375 17.7612C3.25 16.875 2.8125 15.9038 2.8125 15C2.8125 14.0963 3.25 13.125 3.86375 12.2388C4.49625 11.3275 5.39125 10.4013 6.47375 9.56875Z" fill="black" fill-opacity="0.6"/>
</svg>
