<svg width="36" height="36" viewBox="0 0 36 36" fill="none" xmlns="http://www.w3.org/2000/svg">
<path d="M6 28.5C5.175 28.5 4.469 28.2065 3.882 27.6195C3.295 27.0325 3.001 26.326 3 25.5V7.5C3 6.675 3.294 5.969 3.882 5.382C4.47 4.795 5.176 4.501 6 4.5H30C30.825 4.5 31.5315 4.794 32.1195 5.382C32.7075 5.97 33.001 6.676 33 7.5V25.5C33 26.325 32.7065 27.0315 32.1195 27.6195C31.5325 28.2075 30.826 28.501 30 28.5H24V30C24 30.425 23.856 30.7815 23.568 31.0695C23.28 31.3575 22.924 31.501 22.5 31.5H13.5C13.075 31.5 12.719 31.356 12.432 31.068C12.145 30.78 12.001 30.424 12 30V28.5H6ZM6 25.5H30V7.5H6V25.5Z" fill="#2563EB"/>
</svg>
