<svg width="26" height="26" viewBox="0 0 26 26" fill="none" xmlns="http://www.w3.org/2000/svg">
<path d="M13 0.188012C7.58201 0.188012 3.18701 4.58001 3.18701 10C3.18701 15.417 7.58301 19.811 13 19.813C18.416 19.811 22.813 15.417 22.813 10C22.813 4.57901 18.414 0.188012 13 0.188012ZM13 1.31301C17.794 1.31301 21.688 5.20301 21.688 10C21.688 14.797 17.796 18.686 13 18.688C10.6959 18.688 8.48624 17.7727 6.85702 16.1435C5.2278 14.5143 4.31251 12.3046 4.31251 10.0005C4.31251 7.69644 5.2278 5.48674 6.85702 3.85752C8.48624 2.2283 10.6959 1.31301 13 1.31301ZM10.531 2.96901C9.35501 3.08401 8.18201 4.59901 8.90601 5.96901C9.58601 7.25301 11.002 7.12901 11.437 8.59401C11.842 8.03801 12.643 7.41001 14 8.06301C14.878 4.81101 13.025 2.73101 10.531 2.96901ZM18.562 8.46901C17.112 8.41401 16.485 9.69801 15 9.34401C15.277 9.97101 15.432 10.994 14.187 11.844C16.564 14.229 19.272 13.654 20.313 11.375C20.802 10.3 20.111 8.52501 18.562 8.46901ZM12.75 8.71901C12.16 8.83901 11.719 9.37401 11.719 10C11.719 10.716 12.284 11.281 13 11.281C13.716 11.281 14.281 10.716 14.281 10C14.281 9.28401 13.716 8.71901 13 8.71901C12.91 8.71901 12.834 8.70101 12.75 8.71901ZM10.812 10.094C7.55801 10.959 6.70201 13.615 8.15601 15.656C8.84201 16.617 10.738 16.876 11.562 15.562C12.335 14.334 11.512 13.172 12.562 12.062C11.881 11.989 10.925 11.596 10.812 10.094ZM11 21C11 23.001 7.00001 23.344 7.00001 25V26H19V25C19 23.344 15 23.001 15 21C15 21 14.621 21.313 13 21.313C11.379 21.313 11 21 11 21Z" fill="#2563EB"/>
</svg>
