<svg width="35" height="35" viewBox="0 0 35 35" fill="none" xmlns="http://www.w3.org/2000/svg">
<path d="M29.1663 18.9583C29.1663 26.25 24.0622 29.8958 17.9955 32.0104C17.6778 32.1181 17.3328 32.1129 17.0184 31.9958C10.9372 29.8958 5.83301 26.25 5.83301 18.9583V8.75C5.83301 8.36323 5.98665 7.9923 6.26014 7.71881C6.53363 7.44532 6.90457 7.29167 7.29134 7.29167C10.208 7.29167 13.8538 5.54167 16.3913 3.325C16.7003 3.06104 17.0933 2.91602 17.4997 2.91602C17.906 2.91602 18.2991 3.06104 18.608 3.325C21.1601 5.55625 24.7913 7.29167 27.708 7.29167C28.0948 7.29167 28.4657 7.44532 28.7392 7.71881C29.0127 7.9923 29.1663 8.36323 29.1663 8.75V18.9583Z" stroke="#2563EB" stroke-width="2" stroke-linecap="round" stroke-linejoin="round"/>
</svg>
