<svg width="30" height="30" viewBox="0 0 30 30" fill="none" xmlns="http://www.w3.org/2000/svg">
<path d="M2.5 7.5L11.25 16.25H2.5V20H15L23.75 28.75L25.3125 27.1875L4.0625 5.9375L2.5 7.5ZM25.625 16.25H27.5V20H25.625V16.25ZM22.5 16.25H24.375V20H22.5V16.25ZM23.5625 6.1C24.3375 5.3375 24.8125 4.2875 24.8125 3.125H22.9375C22.9375 4.375 21.875 5.4375 20.625 5.4375V7.3125C23.425 7.3125 25.625 9.6 25.625 12.4V15H27.5V12.4C27.5 9.6125 25.9 7.2125 23.5625 6.1ZM18.125 10.875H20.0375C21.35 10.875 22.5 11.8 22.5 13.4375V15H24.375V13.0125C24.375 10.7625 22.375 9.0625 20.0375 9.0625H18.125C16.875 9.0625 15.8125 7.8375 15.8125 6.5625C15.8125 5.2875 16.875 4.375 18.125 4.375V2.5C17.0144 2.5 15.9493 2.94118 15.164 3.72649C14.3787 4.5118 13.9375 5.57691 13.9375 6.6875C13.9375 7.79809 14.3787 8.8632 15.164 9.64851C15.9493 10.4338 17.0144 10.875 18.125 10.875ZM21.25 19.9125V16.25H17.5875L21.25 19.9125Z" fill="#2563EB"/>
</svg>
