<svg width="30" height="30" viewBox="0 0 30 30" fill="none" xmlns="http://www.w3.org/2000/svg">
<path d="M21.78 9.02C22.66 9.18 22.34 8.98 22.82 9.42C22.8967 9.52748 22.9514 9.6491 22.9809 9.77783C23.0104 9.90656 23.0141 10.0399 22.9918 10.17C22.9694 10.3002 22.9216 10.4246 22.8509 10.5362C22.7802 10.6478 22.6882 10.7442 22.58 10.82C21.7 11.44 21.7 11.44 19.08 13.32C16.46 15.18 16.46 15.18 15.58 15.82C15.4187 15.9289 15.2302 15.9904 15.0357 15.9975C14.8413 16.0045 14.6487 15.9569 14.48 15.86C13.76 15.42 14.22 15.7 13.08 15.02L9.48 12.86C9.25495 12.7194 9.09356 12.4966 9.03008 12.239C8.9666 11.9813 9.00603 11.7091 9.14 11.48C9.42 11.02 10.04 10.86 10.52 11.14C11.24 11.58 10.78 11.3 11.92 11.98C14.4 13.46 13.38 12.86 14.96 13.8C15.94 13.1 16.94 12.4 17.92 11.68C20.54 9.82 20.54 9.82 21.42 9.18L21.78 9.02ZM15 3C21.62 3 27 8.38 27 15C27 21.62 21.62 27 15 27C8.38 27 3 21.62 3 15C3 8.38 8.38 3 15 3ZM15 0C6.72 0 0 6.72 0 15C0 23.28 6.72 30 15 30C23.28 30 30 23.28 30 15C30 6.72 23.28 0 15 0Z" fill="#2563EB"/>
</svg>
